<svg xmlns="http://www.w3.org/2000/svg" viewBox="0 0 60 60" width="60" height="60">
  <defs>
    <linearGradient id="globalGradient" x1="0%" y1="0%" x2="100%" y2="100%">
      <stop offset="0%" style="stop-color:#06b6d4;stop-opacity:1" />
      <stop offset="100%" style="stop-color:#0891b2;stop-opacity:1" />
    </linearGradient>
  </defs>
  
  <!-- 地球主体 -->
  <circle cx="30" cy="30" r="25" fill="url(#globalGradient)" />
  
  <!-- 大陆轮廓 -->
  <g fill="#ffffff" opacity="0.9">
    <!-- 亚洲 -->
    <path d="M 35,15 Q 45,20 40,30 Q 35,35 30,30 Q 32,25 35,15" />
    
    <!-- 欧洲 -->
    <path d="M 25,18 Q 30,22 28,28 Q 25,25 25,18" />
    
    <!-- 非洲 -->
    <path d="M 20,25 Q 25,30 22,40 Q 18,35 20,25" />
    
    <!-- 美洲 -->
    <path d="M 12,20 Q 18,25 15,35 Q 10,30 12,20" />
  </g>
  
  <!-- 经纬线 -->
  <g stroke="#ffffff" stroke-width="1" fill="none" opacity="0.5">
    <!-- 经线 -->
    <path d="M 30,5 Q 35,30 30,55" />
    <path d="M 30,5 Q 25,30 30,55" />
    <path d="M 30,5 Q 40,30 30,55" />
    <path d="M 30,5 Q 20,30 30,55" />
    
    <!-- 纬线 -->
    <ellipse cx="30" cy="20" rx="20" ry="5" />
    <ellipse cx="30" cy="30" rx="25" ry="3" />
    <ellipse cx="30" cy="40" rx="20" ry="5" />
  </g>
  
  <!-- 连接点 -->
  <g fill="#fbbf24">
    <circle cx="20" cy="25" r="2" />
    <circle cx="35" cy="20" r="2" />
    <circle cx="40" cy="35" r="2" />
    <circle cx="25" cy="40" r="2" />
  </g>
  
  <!-- 连接线 -->
  <g stroke="#fbbf24" stroke-width="1.5" fill="none" opacity="0.8">
    <path d="M 20,25 Q 30,15 35,20" />
    <path d="M 35,20 Q 45,25 40,35" />
    <path d="M 40,35 Q 30,45 25,40" />
    <path d="M 25,40 Q 15,35 20,25" />
  </g>
</svg>